<svg width="81" height="81" viewBox="0 0 81 81" fill="none" xmlns="http://www.w3.org/2000/svg">
<g clip-path="url(#clip0_1812_1285)">
<path d="M16.2164 72.1874V23.4827H1.25802V72.1874H16.2164ZM8.73913 16.8289C13.9554 16.8289 17.2022 13.0889 17.2022 8.41524C17.105 3.63615 13.9556 0 8.83811 0C3.72146 0 0.375488 3.63622 0.375488 8.41524C0.375488 13.0892 3.62154 16.8289 8.64147 16.8289H8.73866H8.73913ZM24.4958 72.1874H39.4541V44.9883C39.4541 43.5326 39.5513 42.0785 39.9463 41.0379C41.0277 38.1296 43.4889 35.1173 47.621 35.1173C53.0338 35.1173 55.1992 39.5837 55.1992 46.1311V72.187H70.1566V44.2602C70.1566 29.3 62.777 22.3392 52.9353 22.3392C44.8659 22.3392 41.3229 27.2207 39.3546 30.5454H39.4544V23.4817H24.4961C24.6924 28.0519 24.4961 72.1864 24.4961 72.1864L24.4958 72.1874Z" fill="#384766"/>
</g>
<defs>
<clipPath id="clip0_1812_1285">
<rect width="80.2082" height="80.2082" fill="white" transform="translate(0.375488)"/>
</clipPath>
</defs>
</svg>
