<svg width="707" height="129" viewBox="0 0 707 129" fill="none" xmlns="http://www.w3.org/2000/svg">
<g style="mix-blend-mode:overlay">
<path d="M1.69866 45V1.95006H13.5222V45H1.69866ZM52.2298 45H40.7093V27.0524C40.7093 25.4759 40.3455 24.3441 39.6179 23.6569C38.9308 22.9293 38.1223 22.5655 37.1926 22.5655C36.5458 22.5655 35.8587 22.7676 35.131 23.1719C34.4034 23.5357 33.7365 24.0612 33.1301 24.7483C32.5238 25.4355 32.0387 26.2238 31.6749 27.1131V45H20.1545V13.1067H30.5229V17.8361C31.2909 16.6638 32.261 15.6937 33.4333 14.9257C34.6056 14.1172 35.9597 13.5109 37.4958 13.1067C39.0318 12.7024 40.7093 12.5003 42.5284 12.5003C44.7112 12.5003 46.4493 12.8843 47.7429 13.6524C49.0364 14.4204 50.0065 15.4107 50.6533 16.6234C51.3 17.8361 51.7245 19.1094 51.9266 20.4433C52.1287 21.7369 52.2298 22.9293 52.2298 24.0207V45ZM80.1876 43.2416C79.1366 43.6863 78.0048 44.1107 76.7921 44.5149C75.6198 44.8787 74.4072 45.1617 73.1541 45.3638C71.9414 45.5659 70.7489 45.667 69.5767 45.667C67.8385 45.667 66.2418 45.384 64.7866 44.8181C63.3314 44.2118 62.1592 43.2416 61.2699 41.9077C60.421 40.5333 59.9966 38.6941 59.9966 36.39V21.7773H56.0554V13.1067H59.9966V3.1021H71.517V13.1067H77.7622V21.7773H71.517V32.3276C71.517 33.3785 71.7393 34.1264 72.1839 34.571C72.6286 34.9752 73.2349 35.1773 74.0029 35.1773C74.5689 35.1773 75.2156 35.0763 75.9432 34.8742C76.6708 34.6721 77.3984 34.4295 78.126 34.1466L80.1876 43.2416ZM105.099 22.9293C102.876 22.9293 100.855 23.1719 99.0357 23.6569C97.2167 24.142 95.8625 24.9505 94.9732 26.0823V45H83.4528V13.1067H94.0031V19.17C95.1349 17.0276 96.5497 15.3905 98.2474 14.2587C99.9452 13.0865 101.744 12.5003 103.644 12.5003C104.088 12.5003 104.392 12.5003 104.553 12.5003C104.755 12.5003 104.937 12.5205 105.099 12.561V22.9293ZM124.382 45.6063C121.552 45.6063 119.046 45.1617 116.863 44.2724C114.68 43.3831 112.841 42.1704 111.345 40.6344C109.89 39.0579 108.778 37.2793 108.01 35.2986C107.283 33.3179 106.919 31.2361 106.919 29.0533C106.919 26.8705 107.283 24.7888 108.01 22.8081C108.778 20.7869 109.89 19.0083 111.345 17.4723C112.841 15.9362 114.68 14.7236 116.863 13.8343C119.046 12.945 121.552 12.5003 124.382 12.5003C127.252 12.5003 129.758 12.945 131.9 13.8343C134.083 14.7236 135.902 15.9362 137.357 17.4723C138.853 19.0083 139.964 20.7869 140.692 22.8081C141.46 24.7888 141.844 26.8705 141.844 29.0533C141.844 31.2361 141.46 33.3179 140.692 35.2986C139.964 37.2793 138.853 39.0579 137.357 40.6344C135.902 42.1704 134.083 43.3831 131.9 44.2724C129.758 45.1617 127.252 45.6063 124.382 45.6063ZM118.743 29.0533C118.743 30.4681 118.985 31.701 119.47 32.752C119.955 33.7626 120.622 34.5508 121.471 35.1167C122.32 35.6422 123.29 35.9049 124.382 35.9049C125.473 35.9049 126.443 35.6422 127.292 35.1167C128.141 34.5508 128.808 33.7626 129.293 32.752C129.778 31.701 130.02 30.4681 130.02 29.0533C130.02 27.6385 129.778 26.4259 129.293 25.4153C128.808 24.3643 128.141 23.5761 127.292 23.0506C126.443 22.4847 125.473 22.2017 124.382 22.2017C123.29 22.2017 122.32 22.4847 121.471 23.0506C120.622 23.5761 119.955 24.3643 119.47 25.4153C118.985 26.4259 118.743 27.6385 118.743 29.0533ZM144.224 28.9927C144.224 25.8397 144.81 23.0304 145.983 20.5646C147.195 18.0584 148.853 16.0979 150.955 14.6831C153.057 13.2279 155.462 12.5003 158.17 12.5003C160.232 12.5003 162.132 12.9854 163.87 13.9555C165.608 14.8853 166.922 16.1788 167.811 17.8361V0.737386H179.331V32.2669C179.331 33.3583 179.493 34.1264 179.816 34.571C180.14 34.9752 180.706 35.2178 181.514 35.2986V45C179.533 45.4042 177.916 45.6063 176.663 45.6063C174.723 45.6063 173.187 45.2425 172.055 44.5149C170.923 43.7873 170.196 42.6757 169.872 41.1801L169.63 40.028C168.538 41.9683 167.063 43.3831 165.204 44.2724C163.344 45.1617 161.363 45.6063 159.262 45.6063C157.079 45.6063 155.058 45.2021 153.198 44.3937C151.379 43.5852 149.782 42.4534 148.408 40.9982C147.074 39.5025 146.043 37.7442 145.316 35.723C144.588 33.6615 144.224 31.418 144.224 28.9927ZM167.872 32.6307V26.9312C167.508 26.0014 167.002 25.193 166.356 24.5058C165.749 23.7782 165.062 23.2123 164.294 22.8081C163.526 22.4038 162.738 22.2017 161.929 22.2017C161.081 22.2017 160.292 22.3836 159.565 22.7474C158.878 23.1112 158.271 23.6165 157.746 24.2633C157.22 24.91 156.816 25.6578 156.533 26.5067C156.25 27.3556 156.109 28.2651 156.109 29.2352C156.109 30.2458 156.25 31.1553 156.533 31.9638C156.856 32.7722 157.301 33.4796 157.867 34.0859C158.433 34.6518 159.1 35.0965 159.868 35.4199C160.636 35.7433 161.485 35.9049 162.414 35.9049C162.98 35.9049 163.506 35.8443 163.991 35.723C164.476 35.5614 164.941 35.3592 165.386 35.1167C165.83 34.8337 166.255 34.4902 166.659 34.0859C167.103 33.6413 167.508 33.1562 167.872 32.6307ZM185.943 34.0859V13.1067H197.463V31.4787C197.463 32.853 197.766 33.9445 198.373 34.7529C199.019 35.5209 199.888 35.9049 200.98 35.9049C201.586 35.9049 202.193 35.8241 202.799 35.6624C203.405 35.5007 204.012 35.1773 204.618 34.6923C205.265 34.2072 205.891 33.52 206.498 32.6307V13.1067H218.018V32.2669C218.018 33.3583 218.18 34.1264 218.503 34.571C218.826 34.9752 219.392 35.2178 220.201 35.2986V45C219.19 45.2021 218.281 45.3436 217.472 45.4244C216.664 45.5457 215.956 45.6063 215.35 45.6063C213.41 45.6063 211.874 45.2425 210.742 44.5149C209.61 43.7873 208.882 42.6757 208.559 41.1801L208.317 40.028C206.821 42.0087 205.022 43.4437 202.92 44.333C200.859 45.1819 198.514 45.6063 195.887 45.6063C192.693 45.6063 190.228 44.616 188.489 42.6353C186.792 40.6546 185.943 37.8048 185.943 34.0859ZM240.676 45.6063C237.847 45.6063 235.341 45.1617 233.158 44.2724C231.016 43.3831 229.197 42.1704 227.701 40.6344C226.205 39.0579 225.073 37.2793 224.305 35.2986C223.537 33.3179 223.153 31.2361 223.153 29.0533C223.153 26.1429 223.82 23.4346 225.154 20.9284C226.529 18.3818 228.509 16.3405 231.096 14.8044C233.724 13.2684 236.917 12.5003 240.676 12.5003C244.517 12.5003 247.75 13.3088 250.378 14.9257C253.005 16.5426 254.966 18.6243 256.259 21.1709L245.042 24.5664C244.517 23.7984 243.87 23.2123 243.102 22.8081C242.374 22.4038 241.546 22.2017 240.616 22.2017C239.565 22.2017 238.615 22.4847 237.766 23.0506C236.917 23.5761 236.23 24.3441 235.705 25.3547C235.219 26.3652 234.977 27.5981 234.977 29.0533C234.977 30.4681 235.219 31.701 235.705 32.752C236.23 33.7626 236.917 34.5508 237.766 35.1167C238.615 35.6422 239.565 35.9049 240.616 35.9049C241.263 35.9049 241.849 35.8241 242.374 35.6624C242.9 35.4603 243.385 35.1773 243.829 34.8135C244.315 34.4497 244.719 34.0253 245.042 33.5402L256.259 36.9357C255.41 38.6335 254.238 40.1291 252.743 41.4226C251.287 42.7161 249.549 43.7469 247.528 44.5149C245.547 45.2425 243.264 45.6063 240.676 45.6063ZM259.906 45V13.1067H271.427V45H259.906ZM259.906 10.4388V0.737386H271.427V10.4388H259.906ZM309.331 45H297.811V27.0524C297.811 25.4759 297.447 24.3441 296.719 23.6569C296.032 22.9293 295.223 22.5655 294.294 22.5655C293.647 22.5655 292.96 22.7676 292.232 23.1719C291.505 23.5357 290.838 24.0612 290.231 24.7483C289.625 25.4355 289.14 26.2238 288.776 27.1131V45H277.256V13.1067H287.624V17.8361C288.392 16.6638 289.362 15.6937 290.534 14.9257C291.707 14.1172 293.061 13.5109 294.597 13.1067C296.133 12.7024 297.811 12.5003 299.63 12.5003C301.812 12.5003 303.551 12.8843 304.844 13.6524C306.138 14.4204 307.108 15.4107 307.754 16.6234C308.401 17.8361 308.826 19.1094 309.028 20.4433C309.23 21.7369 309.331 22.9293 309.331 24.0207V45ZM327.163 45C325.101 45 323.202 44.5958 321.463 43.7873C319.766 42.9789 318.31 41.847 317.098 40.3918C315.885 38.9366 314.935 37.2389 314.248 35.2986C313.601 33.3583 313.278 31.2564 313.278 28.9927C313.278 26.6078 313.642 24.425 314.369 22.4443C315.097 20.4231 316.107 18.6648 317.401 17.1691C318.735 15.6735 320.311 14.5215 322.13 13.713C323.949 12.9046 325.95 12.5003 328.133 12.5003C330.397 12.5003 332.398 12.9652 334.136 13.8949C335.914 14.7842 337.309 16.0979 338.32 17.8361V13.1067H348.324V42.0896C348.324 45.4042 347.516 48.2944 345.899 50.7602C344.282 53.226 342.018 55.1258 339.108 56.4598C336.197 57.8341 332.802 58.5213 328.921 58.5213C325.566 58.5213 322.615 57.9958 320.069 56.9448C317.563 55.8939 315.339 54.378 313.399 52.3973L319.462 46.0914C320.635 47.1828 322.029 48.0923 323.646 48.8199C325.303 49.588 327.062 49.972 328.921 49.972C330.336 49.972 331.63 49.7092 332.802 49.1837C334.015 48.6582 334.985 47.8094 335.712 46.6371C336.44 45.5053 336.804 43.9894 336.804 42.0896V40.028C335.914 41.6854 334.58 42.9385 332.802 43.7873C331.064 44.5958 329.184 45 327.163 45ZM331.286 35.9049C331.852 35.9049 332.377 35.8443 332.862 35.723C333.388 35.5614 333.873 35.3592 334.318 35.1167C334.762 34.8337 335.187 34.4902 335.591 34.0859C336.036 33.6413 336.44 33.1562 336.804 32.6307V26.9312C336.44 25.961 335.935 25.1324 335.288 24.4452C334.641 23.7176 333.934 23.1719 333.166 22.8081C332.398 22.4038 331.609 22.2017 330.801 22.2017C329.992 22.2017 329.224 22.3836 328.497 22.7474C327.81 23.1112 327.203 23.6367 326.678 24.3239C326.152 24.9707 325.748 25.7185 325.465 26.5673C325.182 27.4162 325.041 28.3257 325.041 29.2959C325.041 30.266 325.182 31.1553 325.465 31.9638C325.789 32.7722 326.233 33.4796 326.799 34.0859C327.365 34.6518 328.032 35.0965 328.8 35.4199C329.568 35.7433 330.397 35.9049 331.286 35.9049ZM365.891 48.2136C366.821 48.537 367.67 48.7795 368.438 48.9412C369.246 49.1433 369.974 49.2444 370.621 49.2444C371.47 49.2444 372.177 49.0827 372.743 48.7593C373.309 48.4763 373.753 48.0115 374.077 47.3647C374.4 46.718 374.602 45.9297 374.683 45L363.102 13.1067H374.926L380.989 33.1764L385.9 13.1067H396.633L385.84 48.8199C385.233 50.8815 384.243 52.6803 382.869 54.2163C381.494 55.7928 379.857 57.0055 377.957 57.8543C376.058 58.7436 374.016 59.1883 371.833 59.1883C370.823 59.1883 369.812 59.0872 368.802 58.8851C367.832 58.7234 366.861 58.4405 365.891 58.0362V48.2136ZM414.523 45.6063C411.694 45.6063 409.188 45.1617 407.005 44.2724C404.822 43.3831 402.983 42.1704 401.487 40.6344C400.032 39.0579 398.92 37.2793 398.152 35.2986C397.425 33.3179 397.061 31.2361 397.061 29.0533C397.061 26.8705 397.425 24.7888 398.152 22.8081C398.92 20.7869 400.032 19.0083 401.487 17.4723C402.983 15.9362 404.822 14.7236 407.005 13.8343C409.188 12.945 411.694 12.5003 414.523 12.5003C417.393 12.5003 419.899 12.945 422.042 13.8343C424.225 14.7236 426.044 15.9362 427.499 17.4723C428.995 19.0083 430.106 20.7869 430.834 22.8081C431.602 24.7888 431.986 26.8705 431.986 29.0533C431.986 31.2361 431.602 33.3179 430.834 35.2986C430.106 37.2793 428.995 39.0579 427.499 40.6344C426.044 42.1704 424.225 43.3831 422.042 44.2724C419.899 45.1617 417.393 45.6063 414.523 45.6063ZM408.884 29.0533C408.884 30.4681 409.127 31.701 409.612 32.752C410.097 33.7626 410.764 34.5508 411.613 35.1167C412.462 35.6422 413.432 35.9049 414.523 35.9049C415.615 35.9049 416.585 35.6422 417.434 35.1167C418.283 34.5508 418.95 33.7626 419.435 32.752C419.92 31.701 420.162 30.4681 420.162 29.0533C420.162 27.6385 419.92 26.4259 419.435 25.4153C418.95 24.3643 418.283 23.5761 417.434 23.0506C416.585 22.4847 415.615 22.2017 414.523 22.2017C413.432 22.2017 412.462 22.4847 411.613 23.0506C410.764 23.5761 410.097 24.3643 409.612 25.4153C409.127 26.4259 408.884 27.6385 408.884 29.0533ZM435.761 34.0859V13.1067H447.281V31.4787C447.281 32.853 447.584 33.9445 448.191 34.7529C448.837 35.5209 449.707 35.9049 450.798 35.9049C451.404 35.9049 452.011 35.8241 452.617 35.6624C453.223 35.5007 453.83 35.1773 454.436 34.6923C455.083 34.2072 455.709 33.52 456.316 32.6307V13.1067H467.836V32.2669C467.836 33.3583 467.998 34.1264 468.321 34.571C468.644 34.9752 469.21 35.2178 470.019 35.2986V45C469.008 45.2021 468.099 45.3436 467.29 45.4244C466.482 45.5457 465.774 45.6063 465.168 45.6063C463.228 45.6063 461.692 45.2425 460.56 44.5149C459.428 43.7873 458.701 42.6757 458.377 41.1801L458.135 40.028C456.639 42.0087 454.84 43.4437 452.738 44.333C450.677 45.1819 448.332 45.6063 445.705 45.6063C442.511 45.6063 440.046 44.616 438.307 42.6353C436.61 40.6546 435.761 37.8048 435.761 34.0859ZM496.376 22.9293C494.153 22.9293 492.132 23.1719 490.313 23.6569C488.494 24.142 487.139 24.9505 486.25 26.0823V45H474.73V13.1067H485.28V19.17C486.412 17.0276 487.827 15.3905 489.524 14.2587C491.222 13.0865 493.021 12.5003 494.921 12.5003C495.365 12.5003 495.669 12.5003 495.83 12.5003C496.032 12.5003 496.214 12.5205 496.376 12.561V22.9293ZM518.613 45L507.881 13.1067H519.705L525.404 34.7529L531.165 13.1067H541.897L531.165 45H518.613ZM544.897 45V13.1067H556.417V45H544.897ZM544.897 10.4388V0.737386H556.417V10.4388H544.897ZM583.892 22.9293C581.669 22.9293 579.648 23.1719 577.829 23.6569C576.01 24.142 574.656 24.9505 573.766 26.0823V45H562.246V13.1067H572.796V19.17C573.928 17.0276 575.343 15.3905 577.041 14.2587C578.738 13.0865 580.537 12.5003 582.437 12.5003C582.882 12.5003 583.185 12.5003 583.347 12.5003C583.549 12.5003 583.731 12.5205 583.892 12.561V22.9293ZM609.844 43.2416C608.793 43.6863 607.662 44.1107 606.449 44.5149C605.277 44.8787 604.064 45.1617 602.811 45.3638C601.598 45.5659 600.406 45.667 599.234 45.667C597.495 45.667 595.899 45.384 594.443 44.8181C592.988 44.2118 591.816 43.2416 590.927 41.9077C590.078 40.5333 589.653 38.6941 589.653 36.39V21.7773H585.712V13.1067H589.653V3.1021H601.174V13.1067H607.419V21.7773H601.174V32.3276C601.174 33.3785 601.396 34.1264 601.841 34.571C602.285 34.9752 602.892 35.1773 603.66 35.1773C604.226 35.1773 604.872 35.0763 605.6 34.8742C606.328 34.6721 607.055 34.4295 607.783 34.1466L609.844 43.2416ZM612.806 34.0859V13.1067H624.327V31.4787C624.327 32.853 624.63 33.9445 625.236 34.7529C625.883 35.5209 626.752 35.9049 627.844 35.9049C628.45 35.9049 629.056 35.8241 629.663 35.6624C630.269 35.5007 630.875 35.1773 631.482 34.6923C632.128 34.2072 632.755 33.52 633.361 32.6307V13.1067H644.882V32.2669C644.882 33.3583 645.043 34.1264 645.367 34.571C645.69 34.9752 646.256 35.2178 647.065 35.2986V45C646.054 45.2021 645.144 45.3436 644.336 45.4244C643.528 45.5457 642.82 45.6063 642.214 45.6063C640.274 45.6063 638.737 45.2425 637.606 44.5149C636.474 43.7873 635.746 42.6757 635.423 41.1801L635.18 40.028C633.685 42.0087 631.886 43.4437 629.784 44.333C627.722 45.1819 625.378 45.6063 622.75 45.6063C619.557 45.6063 617.091 44.616 615.353 42.6353C613.655 40.6546 612.806 37.8048 612.806 34.0859ZM650.017 35.3592C650.017 33.2168 650.603 31.3372 651.775 29.7203C652.948 28.063 654.565 26.7695 656.626 25.8397C658.728 24.91 661.113 24.4452 663.781 24.4452C665.034 24.4452 666.206 24.5462 667.298 24.7483C668.43 24.9504 669.4 25.2536 670.208 25.6578V24.6877C670.208 23.1921 669.763 22.0805 668.874 21.3528C668.025 20.6252 666.631 20.2614 664.69 20.2614C662.912 20.2614 661.234 20.5646 659.658 21.1709C658.122 21.7369 656.505 22.5857 654.807 23.7176L651.472 16.5628C653.615 15.1884 655.858 14.1779 658.203 13.5311C660.588 12.8439 663.134 12.5003 665.842 12.5003C670.895 12.5003 674.796 13.6524 677.545 15.9564C680.334 18.2201 681.729 21.5954 681.729 26.0823V32.2669C681.729 33.3583 681.89 34.1264 682.214 34.571C682.537 34.9752 683.103 35.2178 683.911 35.2986V45C682.982 45.2021 682.092 45.3436 681.243 45.4244C680.435 45.5457 679.707 45.6063 679.061 45.6063C676.999 45.6063 675.423 45.2425 674.331 44.5149C673.28 43.7469 672.593 42.6353 672.27 41.1801L672.027 40.028C670.612 41.847 668.975 43.2416 667.116 44.2118C665.256 45.1415 663.276 45.6063 661.174 45.6063C659.072 45.6063 657.172 45.1617 655.474 44.2724C653.776 43.3831 652.442 42.1704 651.472 40.6344C650.502 39.0579 650.017 37.2995 650.017 35.3592ZM668.692 36.1475C669.137 35.8241 669.501 35.4805 669.784 35.1167C670.067 34.7125 670.208 34.3083 670.208 33.904V31.5393C669.561 31.2968 668.814 31.0947 667.965 30.933C667.156 30.7713 666.429 30.6904 665.782 30.6904C664.407 30.6904 663.235 31.034 662.265 31.7212C661.335 32.4084 660.871 33.2775 660.871 34.3285C660.871 34.8944 661.032 35.4199 661.356 35.9049C661.679 36.3496 662.124 36.7134 662.69 36.9963C663.255 37.2389 663.902 37.3602 664.63 37.3602C665.317 37.3602 666.024 37.2591 666.752 37.057C667.52 36.8144 668.167 36.5113 668.692 36.1475ZM687.83 0.737386H699.351V32.3276C699.351 33.4998 699.593 34.4093 700.078 35.0561C700.604 35.6624 701.352 35.9656 702.322 35.9656C702.807 35.9656 703.332 35.8847 703.898 35.723C704.464 35.5614 704.99 35.339 705.475 35.0561L706.93 43.5448C705.556 44.1916 703.999 44.6968 702.261 45.0606C700.563 45.4244 698.946 45.6063 697.41 45.6063C694.338 45.6063 691.974 44.8181 690.316 43.2416C688.659 41.6247 687.83 39.3409 687.83 36.39V0.737386ZM22.3748 116.606C20.0707 116.606 18.0698 116.162 16.372 115.272C14.6743 114.343 13.3605 113.009 12.4308 111.271V128.915H0.910418V84.1067H10.915V88.8967C12.0468 87.1586 13.4414 85.8246 15.0987 84.8949C16.7965 83.9652 18.8378 83.5003 21.2227 83.5003C23.3651 83.5003 25.3256 83.9046 27.1042 84.713C28.8828 85.5215 30.439 86.6735 31.773 88.1691C33.1069 89.6648 34.1377 91.4029 34.8653 93.3836C35.5929 95.3643 35.9567 97.5471 35.9567 99.9321C35.9567 103.125 35.3706 105.975 34.1983 108.481C33.0261 110.988 31.4092 112.968 29.3476 114.424C27.3265 115.879 25.0022 116.606 22.3748 116.606ZM18.3729 106.905C19.2218 106.905 19.9898 106.723 20.677 106.359C21.4046 105.995 22.0312 105.49 22.5567 104.843C23.0821 104.197 23.4864 103.449 23.7693 102.6C24.0523 101.751 24.1938 100.842 24.1938 99.8714C24.1938 98.8609 24.0321 97.9514 23.7087 97.1429C23.4257 96.3345 23.0013 95.6473 22.4354 95.0814C21.8695 94.475 21.2025 94.0102 20.4345 93.6868C19.6664 93.3634 18.8176 93.2017 17.8879 93.2017C17.3624 93.2017 16.8369 93.2826 16.3114 93.4443C15.8263 93.5655 15.3615 93.7676 14.9168 94.0506C14.4722 94.2931 14.0275 94.6165 13.5829 95.0207C13.1786 95.425 12.7946 95.91 12.4308 96.4759V101.994C12.7946 102.923 13.2797 103.772 13.886 104.54C14.5328 105.268 15.2402 105.854 16.0082 106.299C16.7762 106.703 17.5645 106.905 18.3729 106.905ZM55.8725 116.606C53.0834 116.606 50.5974 116.182 48.4146 115.333C46.2318 114.444 44.3925 113.251 42.8969 111.756C41.4417 110.26 40.3301 108.542 39.562 106.602C38.794 104.661 38.41 102.62 38.41 100.478C38.41 97.4057 39.077 94.5963 40.4109 92.0497C41.7449 89.4626 43.7053 87.4011 46.2924 85.865C48.8794 84.2886 52.0728 83.5003 55.8725 83.5003C59.6722 83.5003 62.8656 84.2684 65.4526 85.8044C68.0397 87.3405 70.0002 89.3616 71.3341 91.8678C72.6681 94.374 73.335 97.1025 73.335 100.053C73.335 100.66 73.2946 101.286 73.2138 101.933C73.1733 102.539 73.1127 103.085 73.0319 103.57H50.658C50.7389 104.702 51.042 105.632 51.5675 106.359C52.1334 107.046 52.8206 107.552 53.6291 107.875C54.4779 108.198 55.347 108.36 56.2363 108.36C57.4894 108.36 58.6617 108.077 59.7531 107.511C60.8849 106.945 61.6327 106.157 61.9965 105.147L71.7585 107.936C70.9097 109.633 69.7172 111.129 68.1812 112.423C66.6855 113.716 64.9069 114.747 62.8454 115.515C60.7838 116.243 58.4596 116.606 55.8725 116.606ZM50.4155 96.6578H60.9657C60.8445 95.6069 60.5413 94.7176 60.0562 93.99C59.6116 93.2624 59.0053 92.6964 58.2372 92.2922C57.5096 91.888 56.6608 91.6859 55.6906 91.6859C54.7205 91.6859 53.8514 91.888 53.0834 92.2922C52.3558 92.6964 51.7494 93.2624 51.2644 93.99C50.8197 94.7176 50.5367 95.6069 50.4155 96.6578ZM98.7633 93.9293C96.5401 93.9293 94.5189 94.1719 92.6999 94.6569C90.8809 95.142 89.5268 95.9505 88.6375 97.0823V116H77.1171V84.1067H87.6673V90.17C88.7991 88.0276 90.2139 86.3905 91.9117 85.2587C93.6094 84.0865 95.4082 83.5003 97.3081 83.5003C97.7527 83.5003 98.0559 83.5003 98.2176 83.5003C98.4197 83.5003 98.6016 83.5205 98.7633 83.561V93.9293ZM115.135 116.606C112.346 116.606 109.597 116.162 106.889 115.272C104.221 114.343 101.958 113.009 100.098 111.271L104.039 104.176C106.02 105.47 107.92 106.481 109.739 107.208C111.598 107.936 113.276 108.3 114.772 108.3C115.62 108.3 116.247 108.198 116.651 107.996C117.055 107.754 117.258 107.37 117.258 106.844C117.258 106.481 117.116 106.177 116.833 105.935C116.55 105.692 116.085 105.45 115.439 105.207C114.832 104.965 114.044 104.702 113.074 104.419C110.568 103.53 108.466 102.701 106.768 101.933C105.111 101.165 103.857 100.235 103.009 99.1438C102.2 98.012 101.796 96.5164 101.796 94.6569C101.796 92.4741 102.342 90.554 103.433 88.8967C104.524 87.199 106.081 85.865 108.102 84.8949C110.163 83.9248 112.629 83.4397 115.499 83.4397C117.642 83.4397 119.784 83.7833 121.926 84.4705C124.109 85.1172 126.211 86.3097 128.232 88.0479L123.867 95.0814C121.845 93.8283 120.128 92.939 118.713 92.4135C117.338 91.888 116.105 91.6252 115.014 91.6252C114.489 91.6252 114.024 91.6859 113.619 91.8071C113.256 91.9284 112.973 92.1103 112.771 92.3528C112.569 92.5954 112.467 92.9188 112.467 93.323C112.467 93.7272 112.609 94.0708 112.892 94.3538C113.175 94.5963 113.619 94.8388 114.226 95.0814C114.832 95.2835 115.6 95.526 116.53 95.809C119.279 96.6174 121.522 97.4461 123.26 98.295C124.998 99.1034 126.272 100.094 127.08 101.266C127.929 102.438 128.353 103.974 128.353 105.874C128.353 109.229 127.161 111.857 124.776 113.757C122.432 115.656 119.218 116.606 115.135 116.606ZM148.422 116.606C145.592 116.606 143.086 116.162 140.903 115.272C138.72 114.383 136.881 113.17 135.386 111.634C133.93 110.058 132.819 108.279 132.051 106.299C131.323 104.318 130.959 102.236 130.959 100.053C130.959 97.8705 131.323 95.7888 132.051 93.8081C132.819 91.7869 133.93 90.0083 135.386 88.4723C136.881 86.9362 138.72 85.7236 140.903 84.8343C143.086 83.945 145.592 83.5003 148.422 83.5003C151.292 83.5003 153.798 83.945 155.94 84.8343C158.123 85.7236 159.942 86.9362 161.397 88.4723C162.893 90.0083 164.005 91.7869 164.732 93.8081C165.5 95.7888 165.884 97.8705 165.884 100.053C165.884 102.236 165.5 104.318 164.732 106.299C164.005 108.279 162.893 110.058 161.397 111.634C159.942 113.17 158.123 114.383 155.94 115.272C153.798 116.162 151.292 116.606 148.422 116.606ZM142.783 100.053C142.783 101.468 143.025 102.701 143.511 103.752C143.996 104.763 144.663 105.551 145.511 106.117C146.36 106.642 147.33 106.905 148.422 106.905C149.513 106.905 150.483 106.642 151.332 106.117C152.181 105.551 152.848 104.763 153.333 103.752C153.818 102.701 154.061 101.468 154.061 100.053C154.061 98.6385 153.818 97.4259 153.333 96.4153C152.848 95.3643 152.181 94.5761 151.332 94.0506C150.483 93.4847 149.513 93.2017 148.422 93.2017C147.33 93.2017 146.36 93.4847 145.511 94.0506C144.663 94.5761 143.996 95.3643 143.511 96.4153C143.025 97.4259 142.783 98.6385 142.783 100.053ZM202.038 116H190.517V98.0524C190.517 96.4759 190.153 95.3441 189.426 94.6569C188.739 93.9293 187.93 93.5655 187 93.5655C186.354 93.5655 185.667 93.7676 184.939 94.1719C184.211 94.5357 183.544 95.0612 182.938 95.7483C182.332 96.4355 181.847 97.2238 181.483 98.1131V116H169.962V84.1067H180.331V88.8361C181.099 87.6638 182.069 86.6937 183.241 85.9257C184.413 85.1172 185.768 84.5109 187.304 84.1067C188.84 83.7024 190.517 83.5003 192.336 83.5003C194.519 83.5003 196.257 83.8843 197.551 84.6524C198.844 85.4204 199.814 86.4107 200.461 87.6234C201.108 88.8361 201.532 90.1094 201.734 91.4433C201.937 92.7369 202.038 93.9293 202.038 95.0207V116ZM205.863 106.359C205.863 104.217 206.449 102.337 207.622 100.72C208.794 99.063 210.411 97.7695 212.472 96.8397C214.574 95.91 216.959 95.4452 219.627 95.4452C220.88 95.4452 222.052 95.5462 223.144 95.7483C224.276 95.9504 225.246 96.2536 226.054 96.6578V95.6877C226.054 94.1921 225.61 93.0805 224.72 92.3528C223.871 91.6252 222.477 91.2614 220.537 91.2614C218.758 91.2614 217.081 91.5646 215.504 92.1709C213.968 92.7369 212.351 93.5857 210.653 94.7176L207.318 87.5628C209.461 86.1884 211.704 85.1779 214.049 84.5311C216.434 83.8439 218.98 83.5003 221.689 83.5003C226.741 83.5003 230.642 84.6524 233.391 86.9564C236.18 89.2201 237.575 92.5954 237.575 97.0823V103.267C237.575 104.358 237.736 105.126 238.06 105.571C238.383 105.975 238.949 106.218 239.758 106.299V116C238.828 116.202 237.939 116.344 237.09 116.424C236.281 116.546 235.554 116.606 234.907 116.606C232.845 116.606 231.269 116.243 230.177 115.515C229.126 114.747 228.439 113.635 228.116 112.18L227.873 111.028C226.459 112.847 224.821 114.242 222.962 115.212C221.103 116.141 219.122 116.606 217.02 116.606C214.918 116.606 213.018 116.162 211.32 115.272C209.623 114.383 208.289 113.17 207.318 111.634C206.348 110.058 205.863 108.3 205.863 106.359ZM224.538 107.147C224.983 106.824 225.347 106.481 225.63 106.117C225.913 105.712 226.054 105.308 226.054 104.904V102.539C225.408 102.297 224.66 102.095 223.811 101.933C223.002 101.771 222.275 101.69 221.628 101.69C220.254 101.69 219.081 102.034 218.111 102.721C217.182 103.408 216.717 104.277 216.717 105.328C216.717 105.894 216.878 106.42 217.202 106.905C217.525 107.35 217.97 107.713 218.536 107.996C219.102 108.239 219.748 108.36 220.476 108.36C221.163 108.36 221.871 108.259 222.598 108.057C223.366 107.814 224.013 107.511 224.538 107.147ZM243.676 71.7374H255.197V103.328C255.197 104.5 255.439 105.409 255.924 106.056C256.45 106.662 257.198 106.966 258.168 106.966C258.653 106.966 259.178 106.885 259.744 106.723C260.31 106.561 260.836 106.339 261.321 106.056L262.776 114.545C261.402 115.192 259.845 115.697 258.107 116.061C256.41 116.424 254.793 116.606 253.257 116.606C250.184 116.606 247.82 115.818 246.162 114.242C244.505 112.625 243.676 110.341 243.676 107.39V71.7374ZM275.912 106.359C275.912 104.217 276.498 102.337 277.67 100.72C278.842 99.063 280.459 97.7695 282.521 96.8397C284.623 95.91 287.008 95.4452 289.676 95.4452C290.929 95.4452 292.101 95.5462 293.192 95.7483C294.324 95.9504 295.294 96.2536 296.103 96.6578V95.6877C296.103 94.1921 295.658 93.0805 294.769 92.3528C293.92 91.6252 292.525 91.2614 290.585 91.2614C288.807 91.2614 287.129 91.5646 285.553 92.1709C284.017 92.7369 282.4 93.5857 280.702 94.7176L277.367 87.5628C279.509 86.1884 281.753 85.1779 284.097 84.5311C286.482 83.8439 289.029 83.5003 291.737 83.5003C296.79 83.5003 300.691 84.6524 303.44 86.9564C306.229 89.2201 307.623 92.5954 307.623 97.0823V103.267C307.623 104.358 307.785 105.126 308.108 105.571C308.432 105.975 308.998 106.218 309.806 106.299V116C308.876 116.202 307.987 116.344 307.138 116.424C306.33 116.546 305.602 116.606 304.955 116.606C302.894 116.606 301.317 116.243 300.226 115.515C299.175 114.747 298.488 113.635 298.164 112.18L297.922 111.028C296.507 112.847 294.87 114.242 293.011 115.212C291.151 116.141 289.17 116.606 287.068 116.606C284.966 116.606 283.067 116.162 281.369 115.272C279.671 114.383 278.337 113.17 277.367 111.634C276.397 110.058 275.912 108.3 275.912 106.359ZM294.587 107.147C295.032 106.824 295.395 106.481 295.678 106.117C295.961 105.712 296.103 105.308 296.103 104.904V102.539C295.456 102.297 294.708 102.095 293.859 101.933C293.051 101.771 292.323 101.69 291.677 101.69C290.302 101.69 289.13 102.034 288.16 102.721C287.23 103.408 286.765 104.277 286.765 105.328C286.765 105.894 286.927 106.42 287.25 106.905C287.574 107.35 288.018 107.713 288.584 107.996C289.15 108.239 289.797 108.36 290.525 108.36C291.212 108.36 291.919 108.259 292.647 108.057C293.415 107.814 294.061 107.511 294.587 107.147ZM326.761 116.606C323.972 116.606 321.223 116.162 318.515 115.272C315.847 114.343 313.584 113.009 311.724 111.271L315.665 104.176C317.646 105.47 319.546 106.481 321.365 107.208C323.224 107.936 324.902 108.3 326.397 108.3C327.246 108.3 327.873 108.198 328.277 107.996C328.681 107.754 328.883 107.37 328.883 106.844C328.883 106.481 328.742 106.177 328.459 105.935C328.176 105.692 327.711 105.45 327.064 105.207C326.458 104.965 325.67 104.702 324.7 104.419C322.193 103.53 320.092 102.701 318.394 101.933C316.736 101.165 315.483 100.235 314.634 99.1438C313.826 98.012 313.422 96.5164 313.422 94.6569C313.422 92.4741 313.968 90.554 315.059 88.8967C316.15 87.199 317.707 85.865 319.728 84.8949C321.789 83.9248 324.255 83.4397 327.125 83.4397C329.267 83.4397 331.41 83.7833 333.552 84.4705C335.735 85.1172 337.837 86.3097 339.858 88.0479L335.492 95.0814C333.471 93.8283 331.753 92.939 330.339 92.4135C328.964 91.888 327.731 91.6252 326.64 91.6252C326.114 91.6252 325.65 91.6859 325.245 91.8071C324.882 91.9284 324.599 92.1103 324.397 92.3528C324.194 92.5954 324.093 92.9188 324.093 93.323C324.093 93.7272 324.235 94.0708 324.518 94.3538C324.801 94.5963 325.245 94.8388 325.852 95.0814C326.458 95.2835 327.226 95.526 328.156 95.809C330.905 96.6174 333.148 97.4461 334.886 98.295C336.624 99.1034 337.898 100.094 338.706 101.266C339.555 102.438 339.979 103.974 339.979 105.874C339.979 109.229 338.787 111.857 336.402 113.757C334.057 115.656 330.844 116.606 326.761 116.606ZM357.137 116.606C354.348 116.606 351.599 116.162 348.891 115.272C346.223 114.343 343.96 113.009 342.1 111.271L346.041 104.176C348.022 105.47 349.922 106.481 351.741 107.208C353.6 107.936 355.278 108.3 356.773 108.3C357.622 108.3 358.249 108.198 358.653 107.996C359.057 107.754 359.259 107.37 359.259 106.844C359.259 106.481 359.118 106.177 358.835 105.935C358.552 105.692 358.087 105.45 357.44 105.207C356.834 104.965 356.046 104.702 355.076 104.419C352.57 103.53 350.468 102.701 348.77 101.933C347.113 101.165 345.859 100.235 345.011 99.1438C344.202 98.012 343.798 96.5164 343.798 94.6569C343.798 92.4741 344.344 90.554 345.435 88.8967C346.526 87.199 348.083 85.865 350.104 84.8949C352.165 83.9248 354.631 83.4397 357.501 83.4397C359.643 83.4397 361.786 83.7833 363.928 84.4705C366.111 85.1172 368.213 86.3097 370.234 88.0479L365.869 95.0814C363.847 93.8283 362.129 92.939 360.715 92.4135C359.34 91.888 358.107 91.6252 357.016 91.6252C356.491 91.6252 356.026 91.6859 355.621 91.8071C355.258 91.9284 354.975 92.1103 354.773 92.3528C354.57 92.5954 354.469 92.9188 354.469 93.323C354.469 93.7272 354.611 94.0708 354.894 94.3538C355.177 94.5963 355.621 94.8388 356.228 95.0814C356.834 95.2835 357.602 95.526 358.532 95.809C361.281 96.6174 363.524 97.4461 365.262 98.295C367 99.1034 368.274 100.094 369.082 101.266C369.931 102.438 370.355 103.974 370.355 105.874C370.355 109.229 369.163 111.857 366.778 113.757C364.434 115.656 361.22 116.606 357.137 116.606ZM374.72 116V84.1067H386.24V116H374.72ZM374.72 81.4388V71.7374H386.24V81.4388H374.72ZM404.863 116.606C402.073 116.606 399.325 116.162 396.616 115.272C393.949 114.343 391.685 113.009 389.825 111.271L393.767 104.176C395.747 105.47 397.647 106.481 399.466 107.208C401.326 107.936 403.003 108.3 404.499 108.3C405.348 108.3 405.974 108.198 406.378 107.996C406.783 107.754 406.985 107.37 406.985 106.844C406.985 106.481 406.843 106.177 406.56 105.935C406.277 105.692 405.813 105.45 405.166 105.207C404.559 104.965 403.771 104.702 402.801 104.419C400.295 103.53 398.193 102.701 396.495 101.933C394.838 101.165 393.585 100.235 392.736 99.1438C391.927 98.012 391.523 96.5164 391.523 94.6569C391.523 92.4741 392.069 90.554 393.16 88.8967C394.252 87.199 395.808 85.865 397.829 84.8949C399.891 83.9248 402.356 83.4397 405.226 83.4397C407.369 83.4397 409.511 83.7833 411.654 84.4705C413.836 85.1172 415.938 86.3097 417.96 88.0479L413.594 95.0814C411.573 93.8283 409.855 92.939 408.44 92.4135C407.066 91.888 405.833 91.6252 404.741 91.6252C404.216 91.6252 403.751 91.6859 403.347 91.8071C402.983 91.9284 402.7 92.1103 402.498 92.3528C402.296 92.5954 402.195 92.9188 402.195 93.323C402.195 93.7272 402.336 94.0708 402.619 94.3538C402.902 94.5963 403.347 94.8388 403.953 95.0814C404.559 95.2835 405.327 95.526 406.257 95.809C409.006 96.6174 411.249 97.4461 412.988 98.295C414.726 99.1034 415.999 100.094 416.807 101.266C417.656 102.438 418.081 103.974 418.081 105.874C418.081 109.229 416.888 111.857 414.503 113.757C412.159 115.656 408.945 116.606 404.863 116.606ZM444.464 114.242C443.413 114.686 442.281 115.111 441.068 115.515C439.896 115.879 438.683 116.162 437.43 116.364C436.217 116.566 435.025 116.667 433.853 116.667C432.115 116.667 430.518 116.384 429.063 115.818C427.607 115.212 426.435 114.242 425.546 112.908C424.697 111.533 424.273 109.694 424.273 107.39V92.7773H420.331V84.1067H424.273V74.1021H435.793V84.1067H442.038V92.7773H435.793V103.328C435.793 104.379 436.015 105.126 436.46 105.571C436.905 105.975 437.511 106.177 438.279 106.177C438.845 106.177 439.492 106.076 440.219 105.874C440.947 105.672 441.674 105.43 442.402 105.147L444.464 114.242ZM445.97 106.359C445.97 104.217 446.557 102.337 447.729 100.72C448.901 99.063 450.518 97.7695 452.58 96.8397C454.681 95.91 457.066 95.4452 459.734 95.4452C460.987 95.4452 462.16 95.5462 463.251 95.7483C464.383 95.9504 465.353 96.2536 466.161 96.6578V95.6877C466.161 94.1921 465.717 93.0805 464.828 92.3528C463.979 91.6252 462.584 91.2614 460.644 91.2614C458.865 91.2614 457.188 91.5646 455.611 92.1709C454.075 92.7369 452.458 93.5857 450.76 94.7176L447.426 87.5628C449.568 86.1884 451.811 85.1779 454.156 84.5311C456.541 83.8439 459.088 83.5003 461.796 83.5003C466.849 83.5003 470.749 84.6524 473.498 86.9564C476.287 89.2201 477.682 92.5954 477.682 97.0823V103.267C477.682 104.358 477.844 105.126 478.167 105.571C478.49 105.975 479.056 106.218 479.865 106.299V116C478.935 116.202 478.046 116.344 477.197 116.424C476.388 116.546 475.661 116.606 475.014 116.606C472.952 116.606 471.376 116.243 470.285 115.515C469.234 114.747 468.546 113.635 468.223 112.18L467.98 111.028C466.566 112.847 464.929 114.242 463.069 115.212C461.21 116.141 459.229 116.606 457.127 116.606C455.025 116.606 453.125 116.162 451.427 115.272C449.73 114.383 448.396 113.17 447.426 111.634C446.456 110.058 445.97 108.3 445.97 106.359ZM464.646 107.147C465.09 106.824 465.454 106.481 465.737 106.117C466.02 105.712 466.161 105.308 466.161 104.904V102.539C465.515 102.297 464.767 102.095 463.918 101.933C463.11 101.771 462.382 101.69 461.735 101.69C460.361 101.69 459.189 102.034 458.218 102.721C457.289 103.408 456.824 104.277 456.824 105.328C456.824 105.894 456.986 106.42 457.309 106.905C457.632 107.35 458.077 107.713 458.643 107.996C459.209 108.239 459.856 108.36 460.583 108.36C461.27 108.36 461.978 108.259 462.705 108.057C463.473 107.814 464.12 107.511 464.646 107.147ZM516.101 116H504.581V98.0524C504.581 96.4759 504.217 95.3441 503.49 94.6569C502.802 93.9293 501.994 93.5655 501.064 93.5655C500.417 93.5655 499.73 93.7676 499.003 94.1719C498.275 94.5357 497.608 95.0612 497.002 95.7483C496.395 96.4355 495.91 97.2238 495.547 98.1131V116H484.026V84.1067H494.395V88.8361C495.163 87.6638 496.133 86.6937 497.305 85.9257C498.477 85.1172 499.831 84.5109 501.367 84.1067C502.903 83.7024 504.581 83.5003 506.4 83.5003C508.583 83.5003 510.321 83.8843 511.614 84.6524C512.908 85.4204 513.878 86.4107 514.525 87.6234C515.172 88.8361 515.596 90.1094 515.798 91.4433C516 92.7369 516.101 93.9293 516.101 95.0207V116ZM544.059 114.242C543.008 114.686 541.876 115.111 540.664 115.515C539.491 115.879 538.279 116.162 537.026 116.364C535.813 116.566 534.621 116.667 533.448 116.667C531.71 116.667 530.113 116.384 528.658 115.818C527.203 115.212 526.031 114.242 525.142 112.908C524.293 111.533 523.868 109.694 523.868 107.39V92.7773H519.927V84.1067H523.868V74.1021H535.389V84.1067H541.634V92.7773H535.389V103.328C535.389 104.379 535.611 105.126 536.056 105.571C536.5 105.975 537.107 106.177 537.875 106.177C538.441 106.177 539.087 106.076 539.815 105.874C540.542 105.672 541.27 105.43 541.998 105.147L544.059 114.242Z" fill="white"/>
</g>
</svg>
