<svg width="68" height="68" viewBox="0 0 68 68" fill="none" xmlns="http://www.w3.org/2000/svg">
<path d="M37.6076 0.416504C41.3673 0.42653 43.2756 0.446582 44.9232 0.49337L45.5716 0.516764C46.3202 0.5435 47.0588 0.57692 47.9511 0.617024C51.507 0.784125 53.9333 1.34558 56.0622 2.17106C58.2679 3.01993 60.126 4.16958 61.9842 6.02439C63.6843 7.6945 64.9993 9.71555 65.8375 11.9464C66.663 14.0753 67.2245 16.5016 67.3916 20.0608C67.4317 20.9498 67.4651 21.6884 67.4918 22.4403L67.5119 23.0887C67.562 24.733 67.5821 26.6412 67.5887 30.401L67.5921 32.8941V37.2722C67.6002 39.7099 67.5746 42.1475 67.5152 44.5845L67.4952 45.2328C67.4684 45.9848 67.435 46.7234 67.3949 47.6124C67.2278 51.1716 66.6597 53.5945 65.8375 55.7267C64.9993 57.9576 63.6843 59.9787 61.9842 61.6488C60.3141 63.3489 58.293 64.6639 56.0622 65.5021C53.9333 66.3276 51.507 66.8891 47.9511 67.0562L45.5716 67.1564L44.9232 67.1765C43.2756 67.2233 41.3673 67.2467 37.6076 67.2533L35.1144 67.2567H30.7397C28.301 67.2653 25.8622 67.2397 23.4241 67.1798L22.7757 67.1598C21.9824 67.1297 21.1892 67.0952 20.3962 67.0562C16.8403 66.8891 14.414 66.3276 12.2818 65.5021C10.0521 64.6635 8.03228 63.3484 6.36313 61.6488C4.66187 59.979 3.34566 57.9579 2.50646 55.7267C1.68098 53.5979 1.11952 51.1716 0.952421 47.6124L0.852161 45.2328L0.835451 44.5845C0.773845 42.1476 0.745992 39.7099 0.751901 37.2722V30.401C0.742651 27.9633 0.767161 25.5257 0.825425 23.0887L0.848819 22.4403C0.875555 21.6884 0.908975 20.9498 0.94908 20.0608C1.11618 16.5016 1.67764 14.0786 2.50311 11.9464C3.34428 9.71464 4.6628 7.69351 6.36648 6.02439C8.03465 4.32515 10.0533 3.01015 12.2818 2.17106C14.414 1.34558 16.837 0.784125 20.3962 0.617024C21.2852 0.57692 22.0271 0.5435 22.7757 0.516764L23.4241 0.496712C25.8611 0.437334 28.2987 0.411709 30.7364 0.419846L37.6076 0.416504ZM34.172 17.1265C29.7402 17.1265 25.4899 18.8871 22.3562 22.0208C19.2225 25.1545 17.4619 29.4048 17.4619 33.8366C17.4619 38.2684 19.2225 42.5186 22.3562 45.6524C25.4899 48.7861 29.7402 50.5466 34.172 50.5466C38.6038 50.5466 42.854 48.7861 45.9878 45.6524C49.1215 42.5186 50.882 38.2684 50.882 33.8366C50.882 29.4048 49.1215 25.1545 45.9878 22.0208C42.854 18.8871 38.6038 17.1265 34.172 17.1265ZM34.172 23.8106C35.4886 23.8103 36.7924 24.0695 38.0089 24.5731C39.2254 25.0768 40.3308 25.8151 41.262 26.7459C42.1931 27.6768 42.9318 28.7819 43.4359 29.9983C43.9399 31.2146 44.1995 32.5183 44.1997 33.8349C44.1999 35.1516 43.9408 36.4553 43.4371 37.6718C42.9335 38.8883 42.1952 39.9937 41.2643 40.9249C40.3335 41.856 39.2283 42.5947 38.012 43.0988C36.7957 43.6029 35.492 43.8624 34.1753 43.8626C31.5163 43.8626 28.9661 42.8063 27.0859 40.9261C25.2056 39.0458 24.1493 36.4957 24.1493 33.8366C24.1493 31.1775 25.2056 28.6274 27.0859 26.7471C28.9661 24.8669 31.5163 23.8106 34.1753 23.8106M51.7209 12.1135C50.6129 12.1135 49.5504 12.5537 48.7669 13.3371C47.9835 14.1205 47.5434 15.1831 47.5434 16.291C47.5434 17.399 47.9835 18.4616 48.7669 19.245C49.5504 20.0284 50.6129 20.4686 51.7209 20.4686C52.8288 20.4686 53.8914 20.0284 54.6748 19.245C55.4583 18.4616 55.8984 17.399 55.8984 16.291C55.8984 15.1831 55.4583 14.1205 54.6748 13.3371C53.8914 12.5537 52.8288 12.1135 51.7209 12.1135Z" fill="#384766"/>
</svg>
